<svg width="20" height="15" viewBox="0 0 40 33" fill="none" xmlns="http://www.w3.org/2000/svg">
<path d="M39.3901 4.43403C37.9637 5.06611 36.4313 5.4932 34.8203 5.68624C36.4826 4.69163 37.7261 3.12624 38.319 1.28216C36.7573 2.20976 35.0481 2.8627 33.2658 3.21257C32.0672 1.9328 30.4796 1.08455 28.7495 0.799507C27.0194 0.514468 25.2436 0.808591 23.6978 1.63621C22.152 2.46383 20.9227 3.77865 20.2007 5.37652C19.4787 6.9744 19.3045 8.76594 19.705 10.473C16.5406 10.3141 13.445 9.49163 10.6191 8.05895C7.79318 6.62627 5.30008 4.61539 3.3016 2.15682C2.61826 3.33557 2.22535 4.70224 2.22535 6.15774C2.22459 7.46802 2.54725 8.75823 3.16472 9.91391C3.78219 11.0696 4.67537 12.055 5.76501 12.7827C4.50132 12.7424 3.26551 12.401 2.16043 11.7867V11.8892C2.1603 13.7269 2.79599 15.5081 3.95962 16.9305C5.12325 18.3529 6.74316 19.3289 8.54447 19.6929C7.37219 20.0101 6.14313 20.0569 4.95014 19.8295C5.45836 21.4108 6.44834 22.7935 7.78148 23.7842C9.11461 24.7749 10.7242 25.3238 12.3848 25.3543C9.56577 27.5673 6.08428 28.7677 2.50039 28.7624C1.86554 28.7626 1.23123 28.7255 0.600723 28.6514C4.23858 30.9904 8.4733 32.2317 12.7982 32.2269C27.4386 32.2269 35.4422 20.1012 35.4422 9.58465C35.4422 9.24299 35.4336 8.8979 35.4183 8.55624C36.9751 7.4304 38.3189 6.03627 39.3867 4.43916L39.3901 4.43403Z" fill="black"/>
</svg>
